<svg id="visual" viewBox="0 0 900 100" width="900" height="100" xmlns="http://www.w3.org/2000/svg" xmlns:xlink="http://www.w3.org/1999/xlink" version="1.1"><path d="M0 27L21.5 31.3C43 35.7 86 44.3 128.8 48.5C171.7 52.7 214.3 52.3 257.2 49.3C300 46.3 343 40.7 385.8 39.3C428.7 38 471.3 41 514.2 43.2C557 45.3 600 46.7 642.8 50C685.7 53.3 728.3 58.7 771.2 56.5C814 54.3 857 44.7 878.5 39.8L900 35L900 101L878.5 101C857 101 814 101 771.2 101C728.3 101 685.7 101 642.8 101C600 101 557 101 514.2 101C471.3 101 428.7 101 385.8 101C343 101 300 101 257.2 101C214.3 101 171.7 101 128.8 101C86 101 43 101 21.5 101L0 101Z" fill="#156BBF" stroke-linecap="round" stroke-linejoin="miter"></path></svg>