<svg id="visual" viewBox="0 0 900 100" width="900" height="100" xmlns="http://www.w3.org/2000/svg" xmlns:xlink="http://www.w3.org/1999/xlink" version="1.1"><rect x="0" y="0" width="900" height="100" fill="#d9bfd9"></rect><path d="M0 62L8.8 61C17.7 60 35.3 58 53 52.8C70.7 47.7 88.3 39.3 106 36.8C123.7 34.3 141.3 37.7 159 38.2C176.7 38.7 194.3 36.3 212 37.3C229.7 38.3 247.3 42.7 265 47.7C282.7 52.7 300.3 58.3 318 57.2C335.7 56 353.3 48 371 43.2C388.7 38.3 406.3 36.7 423.8 40.5C441.3 44.3 458.7 53.7 476.2 59.2C493.7 64.7 511.3 66.3 529 62.5C546.7 58.7 564.3 49.3 582 45C599.7 40.7 617.3 41.3 635 45.5C652.7 49.7 670.3 57.3 688 56.2C705.7 55 723.3 45 741 41.3C758.7 37.7 776.3 40.3 794 41.5C811.7 42.7 829.3 42.3 847 40.3C864.7 38.3 882.3 34.7 891.2 32.8L900 31L900 101L891.2 101C882.3 101 864.7 101 847 101C829.3 101 811.7 101 794 101C776.3 101 758.7 101 741 101C723.3 101 705.7 101 688 101C670.3 101 652.7 101 635 101C617.3 101 599.7 101 582 101C564.3 101 546.7 101 529 101C511.3 101 493.7 101 476.2 101C458.7 101 441.3 101 423.8 101C406.3 101 388.7 101 371 101C353.3 101 335.7 101 318 101C300.3 101 282.7 101 265 101C247.3 101 229.7 101 212 101C194.3 101 176.7 101 159 101C141.3 101 123.7 101 106 101C88.3 101 70.7 101 53 101C35.3 101 17.7 101 8.8 101L0 101Z" fill="#858033" stroke-linecap="round" stroke-linejoin="miter"></path></svg>