<svg id="visual" viewBox="0 0 900 100" width="900" height="100" xmlns="http://www.w3.org/2000/svg" xmlns:xlink="http://www.w3.org/1999/xlink" version="1.1"><rect x="0" y="0" width="900" height="100" fill="#dd7740"></rect><path d="M0 48L15 53.2C30 58.3 60 68.7 90 70C120 71.3 150 63.7 180 53.7C210 43.7 240 31.3 270 33.2C300 35 330 51 360 53.2C390 55.3 420 43.7 450 43.8C480 44 510 56 540 56C570 56 600 44 630 43.2C660 42.3 690 52.7 720 59.5C750 66.3 780 69.7 810 71.7C840 73.7 870 74.3 885 74.7L900 75L900 101L885 101C870 101 840 101 810 101C780 101 750 101 720 101C690 101 660 101 630 101C600 101 570 101 540 101C510 101 480 101 450 101C420 101 390 101 360 101C330 101 300 101 270 101C240 101 210 101 180 101C150 101 120 101 90 101C60 101 30 101 15 101L0 101Z" fill="#858033" stroke-linecap="round" stroke-linejoin="miter"></path></svg>