<svg id="visual" viewBox="0 0 900 100" width="900" height="100" xmlns="http://www.w3.org/2000/svg" xmlns:xlink="http://www.w3.org/1999/xlink" version="1.1"><rect x="0" y="0" width="900" height="100" fill="#fce08b"></rect><path d="M0 52L8.3 54.2C16.7 56.3 33.3 60.7 50 58.8C66.7 57 83.3 49 100 47.2C116.7 45.3 133.3 49.7 150 50.5C166.7 51.3 183.3 48.7 200 48.5C216.7 48.3 233.3 50.7 250 53.3C266.7 56 283.3 59 300 55.5C316.7 52 333.3 42 350 39.7C366.7 37.3 383.3 42.7 400 43.8C416.7 45 433.3 42 450 42.7C466.7 43.3 483.3 47.7 500 51.2C516.7 54.7 533.3 57.3 550 57.2C566.7 57 583.3 54 600 54.7C616.7 55.3 633.3 59.7 650 59.8C666.7 60 683.3 56 700 53.8C716.7 51.7 733.3 51.3 750 49.2C766.7 47 783.3 43 800 45.3C816.7 47.7 833.3 56.3 850 59.2C866.7 62 883.3 59 891.7 57.5L900 56L900 101L891.7 101C883.3 101 866.7 101 850 101C833.3 101 816.7 101 800 101C783.3 101 766.7 101 750 101C733.3 101 716.7 101 700 101C683.3 101 666.7 101 650 101C633.3 101 616.7 101 600 101C583.3 101 566.7 101 550 101C533.3 101 516.7 101 500 101C483.3 101 466.7 101 450 101C433.3 101 416.7 101 400 101C383.3 101 366.7 101 350 101C333.3 101 316.7 101 300 101C283.3 101 266.7 101 250 101C233.3 101 216.7 101 200 101C183.3 101 166.7 101 150 101C133.3 101 116.7 101 100 101C83.3 101 66.7 101 50 101C33.3 101 16.7 101 8.3 101L0 101Z" fill="#dd7740" stroke-linecap="round" stroke-linejoin="miter"></path></svg>