<svg id="visual" viewBox="0 0 900 100" width="900" height="100" xmlns="http://www.w3.org/2000/svg" xmlns:xlink="http://www.w3.org/1999/xlink" version="1.1"><rect x="0" y="0" width="900" height="100" fill="#858033"></rect><path d="M0 40L13.7 44.7C27.3 49.3 54.7 58.7 82 57.7C109.3 56.7 136.7 45.3 163.8 43.5C191 41.7 218 49.3 245.2 50.2C272.3 51 299.7 45 327 45.3C354.3 45.7 381.7 52.3 409 57.8C436.3 63.3 463.7 67.7 491 66.2C518.3 64.7 545.7 57.3 573 53.5C600.3 49.7 627.7 49.3 654.8 47.8C682 46.3 709 43.7 736.2 47.3C763.3 51 790.7 61 818 63.2C845.3 65.3 872.7 59.7 886.3 56.8L900 54L900 101L886.3 101C872.7 101 845.3 101 818 101C790.7 101 763.3 101 736.2 101C709 101 682 101 654.8 101C627.7 101 600.3 101 573 101C545.7 101 518.3 101 491 101C463.7 101 436.3 101 409 101C381.7 101 354.3 101 327 101C299.7 101 272.3 101 245.2 101C218 101 191 101 163.8 101C136.7 101 109.3 101 82 101C54.7 101 27.3 101 13.7 101L0 101Z" fill="#fce08b" stroke-linecap="round" stroke-linejoin="miter"></path></svg>