<svg id="visual" viewBox="0 0 900 100" width="900" height="100" xmlns="http://www.w3.org/2000/svg" xmlns:xlink="http://www.w3.org/1999/xlink" version="1.1"><rect x="0" y="0" width="900" height="100" fill="#858033"></rect><path d="M0 41L6.5 40.8C13 40.7 26 40.3 39 43.3C52 46.3 65 52.7 78 52.3C91 52 104 45 117.2 41.7C130.3 38.3 143.7 38.7 156.8 38C170 37.3 183 35.7 196 37.5C209 39.3 222 44.7 235 49C248 53.3 261 56.7 274 57.3C287 58 300 56 313 55.5C326 55 339 56 352 53.2C365 50.3 378 43.7 391 44.8C404 46 417 55 430.2 55.7C443.3 56.3 456.7 48.7 469.8 44C483 39.3 496 37.7 509 38C522 38.3 535 40.7 548 45C561 49.3 574 55.7 587 54.3C600 53 613 44 626 42C639 40 652 45 665 45.2C678 45.3 691 40.7 704 41.8C717 43 730 50 743.2 52.2C756.3 54.3 769.7 51.7 782.8 51.2C796 50.7 809 52.3 822 50C835 47.7 848 41.3 861 42.5C874 43.7 887 52.3 893.5 56.7L900 61L900 101L893.5 101C887 101 874 101 861 101C848 101 835 101 822 101C809 101 796 101 782.8 101C769.7 101 756.3 101 743.2 101C730 101 717 101 704 101C691 101 678 101 665 101C652 101 639 101 626 101C613 101 600 101 587 101C574 101 561 101 548 101C535 101 522 101 509 101C496 101 483 101 469.8 101C456.7 101 443.3 101 430.2 101C417 101 404 101 391 101C378 101 365 101 352 101C339 101 326 101 313 101C300 101 287 101 274 101C261 101 248 101 235 101C222 101 209 101 196 101C183 101 170 101 156.8 101C143.7 101 130.3 101 117.2 101C104 101 91 101 78 101C65 101 52 101 39 101C26 101 13 101 6.5 101L0 101Z" fill="#26656e" stroke-linecap="round" stroke-linejoin="miter"></path></svg>