<svg id="visual" viewBox="0 0 900 100" width="900" height="100" xmlns="http://www.w3.org/2000/svg" xmlns:xlink="http://www.w3.org/1999/xlink" version="1.1"><rect x="0" y="0" width="900" height="100" fill="#d9bfd9"></rect><path d="M0 65L7.2 59.8C14.3 54.7 28.7 44.3 43 38C57.3 31.7 71.7 29.3 86 28.3C100.3 27.3 114.7 27.7 128.8 29C143 30.3 157 32.7 171.2 34.8C185.3 37 199.7 39 214 41.3C228.3 43.7 242.7 46.3 257 49.5C271.3 52.7 285.7 56.3 300 54.8C314.3 53.3 328.7 46.7 343 42.7C357.3 38.7 371.7 37.3 386 36.2C400.3 35 414.7 34 428.8 37.2C443 40.3 457 47.7 471.2 53.7C485.3 59.7 499.7 64.3 514 61.8C528.3 59.3 542.7 49.7 557 48.3C571.3 47 585.7 54 600 58.5C614.3 63 628.7 65 643 60.2C657.3 55.3 671.7 43.7 686 38.8C700.3 34 714.7 36 728.8 40C743 44 757 50 771.2 55C785.3 60 799.7 64 814 61.7C828.3 59.3 842.7 50.7 857 48.8C871.3 47 885.7 52 892.8 54.5L900 57L900 0L892.8 0C885.7 0 871.3 0 857 0C842.7 0 828.3 0 814 0C799.7 0 785.3 0 771.2 0C757 0 743 0 728.8 0C714.7 0 700.3 0 686 0C671.7 0 657.3 0 643 0C628.7 0 614.3 0 600 0C585.7 0 571.3 0 557 0C542.7 0 528.3 0 514 0C499.7 0 485.3 0 471.2 0C457 0 443 0 428.8 0C414.7 0 400.3 0 386 0C371.7 0 357.3 0 343 0C328.7 0 314.3 0 300 0C285.7 0 271.3 0 257 0C242.7 0 228.3 0 214 0C199.7 0 185.3 0 171.2 0C157 0 143 0 128.8 0C114.7 0 100.3 0 86 0C71.7 0 57.3 0 43 0C28.7 0 14.3 0 7.2 0L0 0Z" fill="#f7dfdf" stroke-linecap="round" stroke-linejoin="miter"></path></svg>